HIERARCHY
ROOT Hips
{
	OFFSET 0.000000 87.230942 0.000000
	CHANNELS 6 Xposition Yposition Zposition Xrotation Yrotation Zrotation
	JOINT Pelvis
	{
		OFFSET 0.000000 0.000000 0.000000
		CHANNELS 3 Xrotation Yrotation Zrotation
		JOINT LeftUpLeg
		{
			OFFSET 12.017000 -9.376404 -2.439400
			CHANNELS 3 Xrotation Yrotation Zrotation
			JOINT LeftLeg
			{
				OFFSET -0.007312 -32.846973 2.110600
				CHANNELS 3 Xrotation Yrotation Zrotation
				JOINT LeftFoot
				{
					OFFSET 0.007312 -32.065170 -0.570400
					CHANNELS 3 Xrotation Yrotation Zrotation
					JOINT LeftToeBase
					{
						OFFSET 0.728300 -11.045900 13.180700
						CHANNELS 3 Xrotation Yrotation Zrotation
						End Site
						{
							OFFSET 0.000000 17.212589 0.000000
						}
					}
				}
				JOINT LeftPantLeg
				{
					OFFSET 0.002788 -16.709013 -3.143600
					CHANNELS 3 Xrotation Yrotation Zrotation
					End Site
					{
						OFFSET -0.605125 24.528742 0.000000
					}
				}
			}
			JOINT Left_Butt
			{
				OFFSET -6.630234 1.326584 -3.183700
				CHANNELS 3 Xrotation Yrotation Zrotation
				End Site
				{
					OFFSET -0.498041 20.188049 0.000000
				}
			}
		}
		JOINT RightUpLeg
		{
			OFFSET -11.717000 -9.376404 -2.439400
			CHANNELS 3 Xrotation Yrotation Zrotation
			JOINT RightLeg
			{
				OFFSET -0.003241 -32.846912 2.110600
				CHANNELS 3 Xrotation Yrotation Zrotation
				JOINT RightFoot
				{
					OFFSET 0.003241 -32.065136 -0.570500
					CHANNELS 3 Xrotation Yrotation Zrotation
					JOINT RightToeBase
					{
						OFFSET -0.728300 -11.045901 13.180700
						CHANNELS 3 Xrotation Yrotation Zrotation
						End Site
						{
							OFFSET 0.000000 17.212593 0.000000
						}
					}
				}
				JOINT RightPantLeg
				{
					OFFSET 0.008142 -16.708982 -3.143700
					CHANNELS 3 Xrotation Yrotation Zrotation
					End Site
					{
						OFFSET 0.605088 24.528715 0.000000
					}
				}
			}
			JOINT Right_Butt
			{
				OFFSET 6.630732 1.326584 -3.183700
				CHANNELS 3 Xrotation Yrotation Zrotation
				End Site
				{
					OFFSET 0.498015 20.188240 0.000000
				}
			}
		}
	}
	JOINT Spine
	{
		OFFSET -0.062400 7.848404 3.918300
		CHANNELS 3 Xrotation Yrotation Zrotation
		JOINT Spine1
		{
			OFFSET -0.072800 11.422302 0.713400
			CHANNELS 3 Xrotation Yrotation Zrotation
			JOINT Spine2
			{
				OFFSET -0.083200 13.054001 -1.931600
				CHANNELS 3 Xrotation Yrotation Zrotation
				JOINT Neck
				{
					OFFSET -0.092200 14.121796 -5.138800
					CHANNELS 3 Xrotation Yrotation Zrotation
					JOINT Head
					{
						OFFSET 0.000200 10.447403 -0.842000
						CHANNELS 3 Xrotation Yrotation Zrotation
						JOINT Visor
						{
							OFFSET 0.457100 25.671204 16.550400
							CHANNELS 3 Xrotation Yrotation Zrotation
							End Site
							{
								OFFSET 0.000000 26.061493 0.000000
							}
						}
						JOINT HairMidA
						{
							OFFSET 0.459400 31.585403 8.437400
							CHANNELS 3 Xrotation Yrotation Zrotation
							End Site
							{
								OFFSET 0.000000 26.061493 0.000000
							}
						}
						JOINT HairMidB
						{
							OFFSET 0.464000 33.309204 -8.389700
							CHANNELS 3 Xrotation Yrotation Zrotation
							End Site
							{
								OFFSET 0.000000 26.061493 0.000000
							}
						}
						JOINT HairMidC
						{
							OFFSET 0.466600 27.991196 -17.375099
							CHANNELS 3 Xrotation Yrotation Zrotation
							End Site
							{
								OFFSET 0.000000 26.061493 0.000000
							}
						}
						JOINT HairMidD
						{
							OFFSET 0.467700 17.888092 -21.169500
							CHANNELS 3 Xrotation Yrotation Zrotation
							End Site
							{
								OFFSET 0.000000 26.061493 0.000000
							}
						}
						JOINT HairMidE
						{
							OFFSET 5.325700 3.514603 -14.369699
							CHANNELS 3 Xrotation Yrotation Zrotation
							End Site
							{
								OFFSET 0.000000 26.061493 0.000000
							}
						}
						JOINT HairMidF
						{
							OFFSET -4.394100 3.514603 -14.372400
							CHANNELS 3 Xrotation Yrotation Zrotation
							End Site
							{
								OFFSET 0.000000 26.061493 0.000000
							}
						}
						JOINT HairLeftA
						{
							OFFSET 15.319900 25.746506 2.623300
							CHANNELS 3 Xrotation Yrotation Zrotation
							End Site
							{
								OFFSET 0.000000 26.061493 0.000000
							}
						}
						JOINT HairLeftB
						{
							OFFSET 12.619500 29.289398 -8.731499
							CHANNELS 3 Xrotation Yrotation Zrotation
							End Site
							{
								OFFSET 0.000000 26.061493 0.000000
							}
						}
						JOINT HairLeftC
						{
							OFFSET 15.714800 15.959900 2.909800
							CHANNELS 3 Xrotation Yrotation Zrotation
							End Site
							{
								OFFSET 0.000000 26.061493 0.000000
							}
						}
						JOINT HairLeftD
						{
							OFFSET 16.101700 18.437408 -7.553200
							CHANNELS 3 Xrotation Yrotation Zrotation
							End Site
							{
								OFFSET 0.000000 26.061493 0.000000
							}
						}
						JOINT HairLeftE
						{
							OFFSET 9.731900 17.915009 -18.316799
							CHANNELS 3 Xrotation Yrotation Zrotation
							End Site
							{
								OFFSET 0.000000 26.061493 0.000000
							}
						}
						JOINT HairLeftF
						{
							OFFSET 11.204300 4.953598 -9.668100
							CHANNELS 3 Xrotation Yrotation Zrotation
							End Site
							{
								OFFSET 0.000000 26.061493 0.000000
							}
						}
						JOINT HairRightA
						{
							OFFSET -14.397900 25.746307 2.615100
							CHANNELS 3 Xrotation Yrotation Zrotation
							End Site
							{
								OFFSET 0.000000 26.061493 0.000000
							}
						}
						JOINT HairRightB
						{
							OFFSET -11.691200 29.289200 -8.738199
							CHANNELS 3 Xrotation Yrotation Zrotation
							End Site
							{
								OFFSET 0.000000 26.061493 0.000000
							}
						}
						JOINT HairRightC
						{
							OFFSET -14.792900 15.959702 2.901400
							CHANNELS 3 Xrotation Yrotation Zrotation
							End Site
							{
								OFFSET 0.000000 26.061493 0.000000
							}
						}
						JOINT HairRightD
						{
							OFFSET -15.174000 18.437195 -7.561900
							CHANNELS 3 Xrotation Yrotation Zrotation
							End Site
							{
								OFFSET 0.000000 26.061493 0.000000
							}
						}
						JOINT HairRightE
						{
							OFFSET -8.798200 17.914902 -18.322001
							CHANNELS 3 Xrotation Yrotation Zrotation
							End Site
							{
								OFFSET 0.000000 26.061493 0.000000
							}
						}
						JOINT HairRightF
						{
							OFFSET -10.275200 4.953506 -9.674099
							CHANNELS 3 Xrotation Yrotation Zrotation
							End Site
							{
								OFFSET 0.000000 26.061493 0.000000
							}
						}
					}
				}
				JOINT LeftShoulder
				{
					OFFSET 5.133500 7.341202 -1.867600
					CHANNELS 3 Xrotation Yrotation Zrotation
					JOINT LeftArm
					{
						OFFSET 8.072663 0.936867 -2.176600
						CHANNELS 3 Xrotation Yrotation Zrotation
						JOINT LeftForeArm
						{
							OFFSET 31.271999 0.000000 0.000000
							CHANNELS 3 Xrotation Yrotation Zrotation
							JOINT LeftHand
							{
								OFFSET 31.771030 0.000000 0.000000
								CHANNELS 3 Xrotation Yrotation Zrotation
								JOINT LeftHandThumb1
								{
									OFFSET 2.886520 -2.557846 4.416640
									CHANNELS 3 Xrotation Yrotation Zrotation
									JOINT LeftHandThumb2
									{
										OFFSET 2.371025 -1.368912 1.368911
										CHANNELS 3 Xrotation Yrotation Zrotation
										JOINT LeftHandThumb3
										{
											OFFSET 2.243378 -1.295212 1.295213
											CHANNELS 3 Xrotation Yrotation Zrotation
											End Site
											{
												OFFSET -0.332611 2.876945 0.020015
											}
										}
									}
								}
								JOINT LeftHandIndex1
								{
									OFFSET 8.568985 -0.641945 3.119977
									CHANNELS 3 Xrotation Yrotation Zrotation
									JOINT LeftHandIndex2
									{
										OFFSET 3.348503 0.000000 0.000000
										CHANNELS 3 Xrotation Yrotation Zrotation
										JOINT LeftHandIndex3
										{
											OFFSET 3.314552 0.000000 0.000000
											CHANNELS 3 Xrotation Yrotation Zrotation
											End Site
											{
												OFFSET -1.032898 3.075485 0.678796
											}
										}
									}
								}
								JOINT LeftHandMiddle1
								{
									OFFSET 8.124603 0.000000 0.000000
									CHANNELS 3 Xrotation Yrotation Zrotation
									JOINT LeftHandMiddle2
									{
										OFFSET 4.166275 0.000000 0.000000
										CHANNELS 3 Xrotation Yrotation Zrotation
										JOINT LeftHandMiddle3
										{
											OFFSET 3.018135 0.000000 0.000000
											CHANNELS 3 Xrotation Yrotation Zrotation
											End Site
											{
												OFFSET -1.032700 2.767982 0.617226
											}
										}
									}
								}
								JOINT LeftHandRing1
								{
									OFFSET 8.571686 -0.031357 -2.884048
									CHANNELS 3 Xrotation Yrotation Zrotation
									JOINT LeftHandRing2
									{
										OFFSET 3.671181 0.000000 0.000000
										CHANNELS 3 Xrotation Yrotation Zrotation
										JOINT LeftHandRing3
										{
											OFFSET 2.728851 0.000000 0.000000
											CHANNELS 3 Xrotation Yrotation Zrotation
											End Site
											{
												OFFSET -0.815796 2.539223 0.577389
											}
										}
									}
								}
								JOINT LeftHandPinky1
								{
									OFFSET 7.854515 -0.675232 -5.213020
									CHANNELS 3 Xrotation Yrotation Zrotation
									JOINT LeftHandPinky2
									{
										OFFSET 3.068596 0.000000 0.000000
										CHANNELS 3 Xrotation Yrotation Zrotation
										JOINT LeftHandPinky3
										{
											OFFSET 2.396042 0.000000 0.000000
											CHANNELS 3 Xrotation Yrotation Zrotation
											End Site
											{
												OFFSET -0.524597 2.267998 0.567429
											}
										}
									}
								}
							}
							JOINT LeftSleeve
							{
								OFFSET 19.684509 -0.200119 0.476146
								CHANNELS 3 Xrotation Yrotation Zrotation
								End Site
								{
									OFFSET -0.031017 25.731133 -0.002868
								}
							}
						}
					}
				}
				JOINT RightShoulder
				{
					OFFSET -4.395900 7.341202 -1.870200
					CHANNELS 3 Xrotation Yrotation Zrotation
					JOINT RightArm
					{
						OFFSET -8.071453 0.936867 -2.181100
						CHANNELS 3 Xrotation Yrotation Zrotation
						JOINT RightForeArm
						{
							OFFSET -31.272011 0.000000 0.000000
							CHANNELS 3 Xrotation Yrotation Zrotation
							JOINT RightHand
							{
								OFFSET -31.771019 0.000000 0.000000
								CHANNELS 3 Xrotation Yrotation Zrotation
								JOINT RightHandThumb1
								{
									OFFSET -2.886520 -2.557808 4.416626
									CHANNELS 3 Xrotation Yrotation Zrotation
									JOINT RightHandThumb2
									{
										OFFSET -2.371056 -1.368927 1.368928
										CHANNELS 3 Xrotation Yrotation Zrotation
										JOINT RightHandThumb3
										{
											OFFSET -2.243362 -1.295204 1.295206
											CHANNELS 3 Xrotation Yrotation Zrotation
											End Site
											{
												OFFSET 0.332642 2.876938 0.020047
											}
										}
									}
								}
								JOINT RightHandIndex1
								{
									OFFSET -8.568993 -0.641953 3.120017
									CHANNELS 3 Xrotation Yrotation Zrotation
									JOINT RightHandIndex2
									{
										OFFSET -3.348518 0.000000 0.000000
										CHANNELS 3 Xrotation Yrotation Zrotation
										JOINT RightHandIndex3
										{
											OFFSET -3.314552 0.000000 0.000000
											CHANNELS 3 Xrotation Yrotation Zrotation
											End Site
											{
												OFFSET 1.032898 3.075478 0.678804
											}
										}
									}
								}
								JOINT RightHandMiddle1
								{
									OFFSET -8.124588 0.000000 0.000000
									CHANNELS 3 Xrotation Yrotation Zrotation
									JOINT RightHandMiddle2
									{
										OFFSET -4.166275 0.000000 0.000000
										CHANNELS 3 Xrotation Yrotation Zrotation
										JOINT RightHandMiddle3
										{
											OFFSET -3.018097 0.000000 0.000000
											CHANNELS 3 Xrotation Yrotation Zrotation
											End Site
											{
												OFFSET 1.032700 2.767937 0.617197
											}
										}
									}
								}
								JOINT RightHandRing1
								{
									OFFSET -8.571747 -0.031349 -2.884061
									CHANNELS 3 Xrotation Yrotation Zrotation
									JOINT RightHandRing2
									{
										OFFSET -3.671204 0.000000 0.000000
										CHANNELS 3 Xrotation Yrotation Zrotation
										JOINT RightHandRing3
										{
											OFFSET -2.728874 0.000000 0.000000
											CHANNELS 3 Xrotation Yrotation Zrotation
											End Site
											{
												OFFSET 0.815804 2.539261 0.577413
											}
										}
									}
								}
								JOINT RightHandPinky1
								{
									OFFSET -7.854561 -0.675247 -5.212970
									CHANNELS 3 Xrotation Yrotation Zrotation
									JOINT RightHandPinky2
									{
										OFFSET -3.068550 0.000000 0.000000
										CHANNELS 3 Xrotation Yrotation Zrotation
										JOINT RightHandPinky3
										{
											OFFSET -2.395981 0.000000 0.000000
											CHANNELS 3 Xrotation Yrotation Zrotation
											End Site
											{
												OFFSET 0.524605 2.267952 0.567413
											}
										}
									}
								}
							}
							JOINT RightSleeve
							{
								OFFSET -19.684753 -0.200165 0.476065
								CHANNELS 3 Xrotation Yrotation Zrotation
								End Site
								{
									OFFSET 0.031342 25.731255 -0.002917
								}
							}
						}
					}
				}
				JOINT Hood
				{
					OFFSET 0.369700 14.447800 -5.317800
					CHANNELS 3 Xrotation Yrotation Zrotation
					JOINT Hood1
					{
						OFFSET 0.001700 -5.553802 -5.895100
						CHANNELS 3 Xrotation Yrotation Zrotation
						JOINT Hood2
						{
							OFFSET -0.000200 -8.380501 0.763600
							CHANNELS 3 Xrotation Yrotation Zrotation
							End Site
							{
								OFFSET 0.000000 8.415215 0.000000
							}
						}
					}
				}
				JOINT Left_Breast
				{
					OFFSET 5.682500 3.120102 3.188800
					CHANNELS 3 Xrotation Yrotation Zrotation
					End Site
					{
						OFFSET 0.000000 10.528564 0.000000
					}
				}
				JOINT Right_Breast
				{
					OFFSET -4.947600 3.120102 3.185900
					CHANNELS 3 Xrotation Yrotation Zrotation
					End Site
					{
						OFFSET 0.000000 10.528564 0.000000
					}
				}
				JOINT Whistle
				{
					OFFSET 0.368200 11.471298 0.095400
					CHANNELS 3 Xrotation Yrotation Zrotation
					JOINT Whistle1
					{
						OFFSET -0.002000 -6.349899 7.479800
						CHANNELS 3 Xrotation Yrotation Zrotation
						JOINT Whistle2
						{
							OFFSET -0.001300 -8.217598 4.717600
							CHANNELS 3 Xrotation Yrotation Zrotation
							End Site
							{
								OFFSET 0.000000 9.475479 0.000000
							}
						}
					}
				}
			}
		}
		JOINT Belly
		{
			OFFSET 0.212400 1.593002 3.163700
			CHANNELS 3 Xrotation Yrotation Zrotation
			End Site
			{
				OFFSET 0.000000 7.496635 0.000000
			}
		}
	}
	JOINT FitGrandmaFacialAnim_Joint
	{
		OFFSET 1.150000 -86.211197 -1.220100
		CHANNELS 3 Xrotation Yrotation Zrotation
		End Site
		{
			OFFSET 0.000000 31.666618 0.000000
		}
	}
}
MOTION
Frames: 4
Frame Time: 0.016667
-4.381338 79.689423 -1.054589 -3.163510 -6.184160 5.173488 0.000000 -0.000000 0.000000 -59.995432 5.824869 6.185960 56.015423 -1.154729 -5.102888 -4.829017 0.028408 -0.319742 0.000001 0.000000 -0.000000 0.000001 0.000000 -0.000000 -0.000000 0.000000 0.000000 -16.836186 -7.093077 -6.566481 54.070243 7.312733 3.474772 -33.797046 3.589395 -8.568808 0.000000 -0.000000 0.000000 0.000001 0.000001 -0.000001 0.000002 0.000002 0.000001 13.732081 0.021691 -4.177728 2.722911 0.133860 -0.943517 2.720024 0.135223 -0.952574 2.743906 0.369060 0.041968 21.918282 4.192718 -0.129340 -0.000002 0.000000 0.000000 -0.000002 0.000000 0.000000 -0.000002 0.000000 0.000000 -0.000002 0.000000 0.000000 -0.000002 0.000000 0.000000 -0.000002 0.000000 0.000000 -0.000002 0.000000 0.000000 -0.000002 0.000000 0.000000 -0.000002 0.000000 0.000000 -0.000002 0.000000 0.000000 -0.000002 0.000000 0.000000 -0.000002 0.000000 0.000000 -0.000002 0.000000 0.000000 -0.000002 0.000000 0.000000 -0.000002 0.000000 0.000000 -0.000002 0.000000 0.000000 -0.000002 0.000000 0.000000 -0.000002 0.000000 0.000000 -0.000002 0.000000 0.000000 0.619246 -1.200854 -10.994811 17.248873 -24.148525 -54.371581 -0.000002 -28.855377 0.000009 24.205869 -0.057596 -1.453785 -13.734198 9.516304 2.120171 12.920921 20.445748 20.805441 -0.000003 -0.000004 -0.000001 0.624776 4.843173 -25.352358 0.379506 2.075987 -20.715393 0.000001 0.000001 -0.000003 0.442365 4.431077 -20.811035 0.385158 2.090940 -20.871754 0.000001 -0.000002 -0.000000 0.553770 4.704293 -23.698195 0.384479 2.089169 -20.852950 0.000002 0.000001 0.000001 0.677168 4.972459 -26.586887 0.385162 2.090948 -20.871735 -0.000001 -0.000000 0.000002 0.000005 0.000000 -0.000001 0.265365 6.336858 17.304038 14.561910 17.232533 47.386053 0.000003 42.148971 0.000008 24.497978 9.178832 9.204385 -13.231000 -9.083813 -4.233061 14.743202 -13.848475 -17.282885 -0.000001 0.000001 0.000004 0.733519 -4.698515 31.512375 0.755296 -2.544524 33.060154 0.000002 0.000001 0.000005 0.728929 -4.705633 31.511358 0.755279 -2.544487 33.059905 0.000000 0.000000 -0.000001 0.816083 -4.842843 33.512026 0.711550 -2.476078 32.061277 -0.000000 -0.000001 0.000001 0.908011 -4.976949 35.513326 0.755275 -2.544483 33.059936 0.000001 0.000000 -0.000001 -0.000001 -0.000001 0.000001 -0.000000 0.000000 -0.000000 -0.000000 0.000000 -0.000000 -0.000000 0.000000 -0.000000 -0.000000 0.000000 -0.000000 -0.000000 0.000000 -0.000000 -0.000000 0.000000 0.000000 -0.000000 0.000000 0.000000 -0.000000 0.000000 0.000000 -0.000001 0.000000 -0.000000 0.000000 -0.000000 0.000000 
-4.409803 79.463783 -0.997005 -3.048043 -6.164098 5.036792 -0.000000 0.000000 -0.000000 -59.484828 5.306256 5.837041 51.289782 -1.269778 -4.819627 -1.615770 -0.002703 0.938332 0.000000 0.000000 0.000000 -0.000001 -0.000000 -0.000000 -0.000007 -0.000000 -0.000001 -17.190029 -7.164672 -6.419961 54.722700 7.365259 3.467822 -34.185148 3.622150 -8.672716 0.000000 -0.000000 0.000000 -0.000002 0.000000 0.000001 0.000000 0.000000 0.000000 13.850891 0.157470 -3.893484 2.787336 0.158803 -0.935779 2.784213 0.161848 -0.946241 2.763237 0.364234 0.009162 21.835041 4.220364 -0.349115 -0.000004 -0.000000 -0.000000 -0.000004 -0.000000 -0.000000 -0.000004 -0.000000 -0.000000 -0.000004 -0.000000 -0.000000 -0.000004 -0.000000 -0.000000 -0.000004 -0.000000 -0.000000 -0.000004 -0.000000 -0.000000 -0.000004 -0.000000 -0.000000 -0.000004 -0.000000 -0.000000 -0.000004 -0.000000 -0.000000 -0.000004 -0.000000 -0.000000 -0.000004 -0.000000 -0.000000 -0.000004 -0.000000 -0.000000 -0.000004 -0.000000 -0.000000 -0.000004 -0.000000 -0.000000 -0.000004 -0.000000 -0.000000 -0.000004 -0.000000 -0.000000 -0.000004 -0.000000 -0.000000 -0.000004 -0.000000 -0.000000 0.629832 -1.288737 -11.002614 17.403966 -24.407264 -54.849206 -0.000012 -28.505419 -0.000013 25.130392 -0.221167 -1.029095 -13.734136 9.516097 2.120206 12.920903 20.445893 20.805390 -0.000001 0.000001 0.000001 0.626798 4.847506 -25.401760 0.414676 2.166665 -21.665877 0.000002 -0.000000 0.000002 0.439020 4.422242 -20.716742 0.416238 2.170640 -21.707562 0.000001 -0.000001 -0.000003 0.551154 4.698294 -23.632062 0.415323 2.168391 -21.683653 0.000001 0.000000 0.000000 0.675517 4.969148 -26.548969 0.416229 2.170643 -21.707569 0.000000 -0.000001 -0.000001 0.000001 -0.000001 -0.000000 0.222706 6.699102 17.382116 14.920427 17.286562 46.635989 -0.000000 43.116020 -0.000002 24.299860 9.494719 9.224545 -13.085066 -9.143573 -3.844982 14.660629 -13.964692 -17.694051 0.000001 0.000001 -0.000001 0.754209 -4.732084 32.001499 0.777127 -2.577748 33.548865 0.000002 0.000000 -0.000000 0.749940 -4.739705 32.000529 0.777116 -2.577700 33.548708 0.000001 -0.000002 -0.000002 0.838290 -4.876168 34.001344 0.732786 -2.509638 32.550011 0.000001 0.000002 -0.000006 0.931366 -5.009479 36.002808 0.777118 -2.577689 33.548697 -0.000004 -0.000001 -0.000001 0.000001 0.000000 0.000000 0.000001 -0.000000 0.000000 0.000001 -0.000000 0.000000 0.000001 -0.000000 0.000000 0.000001 -0.000000 0.000000 0.000001 -0.000000 0.000000 0.000001 -0.000000 0.000000 -0.000000 0.000000 -0.000000 -0.000000 0.000000 -0.000000 -0.000000 -0.000001 -0.000000 -0.000000 0.000000 -0.000000 
-4.431923 79.253639 -0.960775 -2.870105 -6.245510 4.848908 0.000000 -0.000001 -0.000000 -58.823884 4.775142 5.632100 46.589110 -1.985118 -4.438103 2.100009 0.019791 2.337476 0.000000 0.000000 -0.000000 0.000001 -0.000000 -0.000000 -0.000000 -0.000000 -0.000000 -17.607586 -7.254023 -6.227173 55.284309 7.525280 3.462510 -34.461890 3.662225 -8.833168 -0.000000 -0.000000 0.000000 0.000001 -0.000000 -0.000001 0.000001 -0.000000 0.000000 13.965862 0.310659 -3.588578 2.847390 0.187924 -0.917954 2.844044 0.192474 -0.929923 2.777812 0.367202 -0.028368 21.720485 4.314693 -0.576000 -0.000004 0.000000 0.000000 -0.000004 0.000000 0.000000 -0.000004 0.000000 0.000000 -0.000004 0.000000 0.000000 -0.000004 0.000000 0.000000 -0.000004 0.000000 0.000000 -0.000004 0.000000 0.000000 -0.000004 0.000000 0.000000 -0.000004 0.000000 0.000000 -0.000004 0.000000 0.000000 -0.000004 0.000000 0.000000 -0.000004 0.000000 0.000000 -0.000004 0.000000 0.000000 -0.000004 0.000000 0.000000 -0.000004 0.000000 0.000000 -0.000004 0.000000 0.000000 -0.000004 0.000000 0.000000 -0.000004 0.000000 0.000000 -0.000004 0.000000 0.000000 0.640728 -1.333960 -11.005100 17.374242 -24.472991 -55.481627 -0.000003 -28.210923 -0.000001 25.772425 -0.259554 -0.556256 -13.734050 9.515850 2.120273 12.920883 20.446103 20.805260 -0.000002 0.000002 -0.000000 0.627453 4.848879 -25.418665 0.447871 2.248439 -22.528211 0.000000 -0.000001 0.000000 0.435055 4.411620 -20.603337 0.446258 2.244516 -22.486735 0.000002 -0.000002 0.000002 0.547666 4.690288 -23.544200 0.445583 2.242884 -22.469475 -0.000001 -0.000002 0.000002 0.672787 4.963669 -26.486661 0.446254 2.244514 -22.486723 -0.000000 -0.000003 -0.000002 -0.000004 0.000000 -0.000000 0.180816 7.065461 17.444800 15.301575 17.417508 45.815037 0.000006 44.069514 0.000007 24.288086 9.779403 9.317241 -12.936538 -9.203453 -3.451730 14.577120 -14.082837 -18.110738 -0.000001 0.000002 0.000001 0.772974 -4.762042 32.439823 0.796960 -2.607360 33.987059 0.000001 -0.000001 0.000005 0.769056 -4.770127 32.438993 0.796949 -2.607324 33.986980 0.000001 0.000001 0.000002 0.858440 -4.905900 34.439941 0.752103 -2.539614 32.988270 -0.000000 -0.000003 -0.000001 0.952567 -5.038496 36.441511 0.796938 -2.607303 33.986994 -0.000003 -0.000003 0.000000 0.000002 0.000002 0.000001 0.000000 -0.000000 -0.000000 0.000000 -0.000000 -0.000000 0.000000 -0.000000 -0.000000 0.000000 -0.000000 -0.000000 0.000000 -0.000000 -0.000000 0.000000 -0.000000 -0.000000 -0.000001 0.000000 -0.000000 -0.000001 0.000000 -0.000000 0.000000 0.000000 0.000000 0.000000 -0.000001 -0.000000 
-4.462640 79.102509 -0.994351 -2.607273 -6.361833 4.682768 -0.000000 0.000000 -0.000000 -58.282639 4.260213 5.625431 43.043821 -1.993792 -4.040634 4.634540 0.032217 2.427848 -0.000001 0.000000 -0.000000 -0.000001 -0.000000 -0.000000 -0.000001 -0.000000 -0.000000 -18.114929 -7.344543 -6.028204 55.661476 7.714566 3.458603 -34.544781 3.692196 -9.019760 0.000000 0.000000 0.000000 -0.000002 0.000000 0.000001 -0.000001 -0.000000 0.000000 14.083323 0.452324 -3.343007 2.901649 0.218671 -0.897720 2.898103 0.224245 -0.911136 2.785687 0.373451 -0.062493 21.560421 4.426316 -0.753392 -0.000000 0.000000 0.000000 -0.000000 0.000000 0.000000 -0.000000 0.000000 0.000000 -0.000000 0.000000 0.000000 -0.000000 0.000000 0.000000 -0.000000 0.000000 0.000000 -0.000000 0.000000 0.000000 -0.000000 0.000000 0.000000 -0.000000 0.000000 0.000000 -0.000000 0.000000 0.000000 -0.000000 0.000000 0.000000 -0.000000 0.000000 0.000000 -0.000000 0.000000 0.000000 -0.000000 0.000000 0.000000 -0.000000 0.000000 0.000000 -0.000000 0.000000 0.000000 -0.000000 0.000000 0.000000 -0.000000 0.000000 0.000000 -0.000000 0.000000 0.000000 0.651120 -1.376266 -11.000301 17.231051 -24.456443 -56.127605 -0.000018 -27.965535 -0.000006 26.138106 -0.195745 -0.169282 -13.733963 9.515515 2.120337 12.920856 20.446347 20.805111 -0.000001 -0.000003 -0.000000 0.626466 4.846803 -25.397577 0.478093 2.319889 -23.286471 0.000002 -0.000002 0.000005 0.430229 4.398734 -20.466165 0.475163 2.313108 -23.214100 -0.000001 -0.000001 0.000002 0.543126 4.679820 -23.429753 0.474917 2.312495 -23.207607 0.000001 0.000002 -0.000005 0.668757 4.955540 -26.394957 0.475146 2.313086 -23.214080 -0.000001 -0.000001 0.000001 0.000000 0.000000 0.000000 0.141481 7.412042 17.493919 15.609458 17.553251 45.040303 0.000009 44.952651 -0.000021 24.556092 10.030638 9.405975 -12.785931 -9.263294 -3.054558 14.492975 -14.202484 -18.531606 -0.000002 0.000003 -0.000004 0.789414 -4.787872 32.818997 0.814281 -2.632853 34.366298 0.000000 0.000003 0.000002 0.785822 -4.796411 32.818345 0.814283 -2.632821 34.366336 -0.000002 -0.000002 -0.000004 0.876137 -4.931592 34.819372 0.769002 -2.565435 33.367598 0.000001 0.000002 -0.000000 0.971159 -5.063542 36.821051 0.814285 -2.632830 34.366360 -0.000003 0.000001 -0.000001 -0.000004 0.000002 -0.000001 0.000001 0.000000 -0.000000 0.000001 0.000000 -0.000000 0.000001 0.000000 -0.000000 0.000001 0.000000 -0.000000 0.000001 0.000000 -0.000000 0.000001 0.000000 -0.000000 -0.000001 0.000000 -0.000000 -0.000001 0.000000 -0.000000 -0.000001 0.000000 -0.000000 -0.000000 0.000000 -0.000000 
